<svg xmlns="http://www.w3.org/2000/svg" width="542.064" height="98.26" viewBox="0 0 542.064 98.26">
  <path d="M119.942,67.338l30.134-37.245v-.231h-28.2v-9.35h41.494v9.35l-29.13,36.162v.233h29.671v9.5H119.942Z" fill="#2b882e"/>
  <path d="M187.476,76.919a22.294,22.294,0,0,1-8.77-1.622A18.262,18.262,0,0,1,168.275,64.17a24.81,24.81,0,0,1-1.353-8.267,23.28,23.28,0,0,1,1.43-8.231,19.673,19.673,0,0,1,4.017-6.606,18.932,18.932,0,0,1,14.1-6.026,19.3,19.3,0,0,1,8.422,1.738,16.906,16.906,0,0,1,6.1,4.906,22.248,22.248,0,0,1,3.748,7.534,34.57,34.57,0,0,1,1.275,9.7H177.276a12.6,12.6,0,0,0,3.13,7.263,9.21,9.21,0,0,0,6.992,2.627,8.393,8.393,0,0,0,4.946-1.313,7.513,7.513,0,0,0,2.705-3.555H205.4a15.723,15.723,0,0,1-1.97,4.985,15.285,15.285,0,0,1-3.71,4.133,18.029,18.029,0,0,1-5.37,2.82A21.4,21.4,0,0,1,187.476,76.919Zm-.851-33.767q-4.172,0-6.336,2.28a11.753,11.753,0,0,0-2.858,6.22h17.618a9.34,9.34,0,0,0-2.513-6.144A7.858,7.858,0,0,0,186.625,43.152Z" fill="#2b882e"/>
  <path d="M221.783,42.457h.232a14.959,14.959,0,0,1,4.019-5.1,9.2,9.2,0,0,1,5.717-1.7,7.614,7.614,0,0,1,2.473.308v9.2h-.232a10.912,10.912,0,0,0-8.5,2.242q-3.324,2.781-3.323,9.04V75.76H211.661V36.121h10.122Z" fill="#2b882e"/>
  <path d="M257.173,76.919a21.18,21.18,0,0,1-8.422-1.622,19.663,19.663,0,0,1-10.78-11.088,23.238,23.238,0,0,1,0-16.459,19.655,19.655,0,0,1,10.78-11.088,22.679,22.679,0,0,1,16.845,0A19.643,19.643,0,0,1,276.374,47.75a23.209,23.209,0,0,1,0,16.459A19.651,19.651,0,0,1,265.6,75.3,21.189,21.189,0,0,1,257.173,76.919Zm0-8.035a8.661,8.661,0,0,0,7.456-3.555,15.517,15.517,0,0,0,2.589-9.35,15.693,15.693,0,0,0-2.589-9.388,9.532,9.532,0,0,0-14.913,0,15.693,15.693,0,0,0-2.588,9.388,15.517,15.517,0,0,0,2.588,9.35A8.664,8.664,0,0,0,257.173,68.884Z" fill="#2b882e"/>
  <path d="M298.124,20.512h24.263a23.667,23.667,0,0,1,8.423,1.353,16.89,16.89,0,0,1,6.027,3.824,17.639,17.639,0,0,1,3.631,5.563,18.2,18.2,0,0,1,1.314,7.033,19.188,19.188,0,0,1-1.275,7.147,15.462,15.462,0,0,1-3.631,5.486,16.464,16.464,0,0,1-5.795,3.555,22.255,22.255,0,0,1-7.766,1.275h-13.6V75.76H298.124ZM309.716,46.63h11.59q4.4,0,6.684-2.242a8.069,8.069,0,0,0,2.279-6.027,7.691,7.691,0,0,0-2.318-6.026,9.364,9.364,0,0,0-6.49-2.087H309.716Z" fill="#2b882e"/>
  <path d="M357.39,42.457h.233a14.945,14.945,0,0,1,4.018-5.1,9.2,9.2,0,0,1,5.718-1.7,7.607,7.607,0,0,1,2.472.308v9.2H369.6a10.913,10.913,0,0,0-8.5,2.242q-3.324,2.781-3.323,9.04V75.76H347.268V36.121H357.39Z" fill="#2b882e"/>
  <path d="M392.781,76.919a21.182,21.182,0,0,1-8.423-1.622,19.663,19.663,0,0,1-10.78-11.088,23.238,23.238,0,0,1,0-16.459,19.655,19.655,0,0,1,10.78-11.088,22.679,22.679,0,0,1,16.845,0A19.649,19.649,0,0,1,411.982,47.75a23.224,23.224,0,0,1,0,16.459A19.657,19.657,0,0,1,401.2,75.3,21.187,21.187,0,0,1,392.781,76.919Zm0-8.035a8.66,8.66,0,0,0,7.455-3.555,15.51,15.51,0,0,0,2.589-9.35,15.686,15.686,0,0,0-2.589-9.388,9.532,9.532,0,0,0-14.913,0,15.693,15.693,0,0,0-2.588,9.388,15.517,15.517,0,0,0,2.588,9.35A8.664,8.664,0,0,0,392.781,68.884Z" fill="#2b882e"/>
  <path d="M418.511,88.819q-1.47,0-3.092-.116a25.905,25.905,0,0,1-2.858-.347v-7.5a22.39,22.39,0,0,0,2.821-.155,6.412,6.412,0,0,0,2.046-.579,2.874,2.874,0,0,0,1.275-1.2,4.541,4.541,0,0,0,.426-2.164V36.121h10.509V77.306a17.52,17.52,0,0,1-.657,5.408,8.318,8.318,0,0,1-1.97,3.246,8.747,8.747,0,0,1-3.749,2.2A16.578,16.578,0,0,1,418.511,88.819Zm.618-68.307h10.509v9.427H419.129Z" fill="#2b882e"/>
  <path d="M455.832,76.919a22.294,22.294,0,0,1-8.77-1.622A18.262,18.262,0,0,1,436.631,64.17a24.81,24.81,0,0,1-1.353-8.267,23.28,23.28,0,0,1,1.43-8.231,19.673,19.673,0,0,1,4.017-6.606,18.932,18.932,0,0,1,14.1-6.026,19.3,19.3,0,0,1,8.422,1.738,16.906,16.906,0,0,1,6.1,4.906,22.248,22.248,0,0,1,3.748,7.534,34.57,34.57,0,0,1,1.275,9.7H445.632a12.6,12.6,0,0,0,3.13,7.263,9.21,9.21,0,0,0,6.992,2.627,8.393,8.393,0,0,0,4.946-1.313,7.513,7.513,0,0,0,2.7-3.555h10.354a15.723,15.723,0,0,1-1.97,4.985,15.285,15.285,0,0,1-3.71,4.133,18.029,18.029,0,0,1-5.37,2.82A21.4,21.4,0,0,1,455.832,76.919Zm-.851-33.767q-4.172,0-6.336,2.28a11.753,11.753,0,0,0-2.858,6.22h17.618a9.34,9.34,0,0,0-2.513-6.144A7.858,7.858,0,0,0,454.981,43.152Z" fill="#2b882e"/>
  <path d="M498.408,76.919a21.1,21.1,0,0,1-8.461-1.622,18.8,18.8,0,0,1-6.376-4.443,19.793,19.793,0,0,1-4.056-6.645,23.3,23.3,0,0,1-1.429-8.23,23.881,23.881,0,0,1,1.391-8.229,19.6,19.6,0,0,1,3.978-6.646,18.677,18.677,0,0,1,6.221-4.442,19.858,19.858,0,0,1,8.19-1.622,20.978,20.978,0,0,1,6.955,1.081,17.259,17.259,0,0,1,5.37,2.974,15.239,15.239,0,0,1,3.709,4.559,19.118,19.118,0,0,1,1.971,5.911H505.593a7.947,7.947,0,0,0-2.434-4.365,6.861,6.861,0,0,0-4.828-1.738,8.245,8.245,0,0,0-7.187,3.36q-2.4,3.361-2.4,9.157a16.174,16.174,0,0,0,2.28,9.079q2.279,3.439,7.148,3.439a8.292,8.292,0,0,0,5.332-1.661,7.723,7.723,0,0,0,2.627-5.062h10.122a15.779,15.779,0,0,1-5.216,10.7,17.049,17.049,0,0,1-5.485,3.246A20.321,20.321,0,0,1,498.408,76.919Z" fill="#2b882e"/>
  <path d="M519.27,36.121h5.486V23.758h10.277V36.121h6.8v6.954h-6.8V64.093a3.737,3.737,0,0,0,1.081,3.09,4.5,4.5,0,0,0,2.86.85h2.009a7.568,7.568,0,0,0,1.081-.077v7.727q-.772.078-1.7.077-.851.076-2.087.078H535.5a17.413,17.413,0,0,1-3.824-.425,9.562,9.562,0,0,1-3.438-1.507,8.011,8.011,0,0,1-2.512-2.937,9.954,9.954,0,0,1-.966-4.636V43.075H519.27Z" fill="#2b882e"/>
  <path d="M67.969,9.487l-.009.037.23.117c.22.175.447.376.066.2.714.455,1.542.955,2.446,1.5a55.043,55.043,0,0,1,7.714,6.194,44.124,44.124,0,0,1,7.915,9.894c.6-.008,1.214-.013,1.839-.013.945,0,1.852.009,2.707.024a54.975,54.975,0,0,0-4.856-6.99c.644.836,1.135,1.737,1.665,2.539a23.72,23.72,0,0,1,1.385,2.334A42.281,42.281,0,0,0,82.3,16.755l-2.2-2.008A10.9,10.9,0,0,0,78.7,13.7c-.662-.445-.785-.459-.583-.21a13.28,13.28,0,0,0,1.24,1.528L82.8,19.588a27.939,27.939,0,0,0-2.941-3.244s-1.376-1.374-1.67-1.612c-.6-.469-1.678-1.391-2.259-1.847A15.464,15.464,0,0,0,77.961,15.1c.659.67,1.445,1.551,1.99,2.041a40.394,40.394,0,0,0-4.526-3.724,16.5,16.5,0,0,0-1.681-1.206c-.506-.3-.9-.546-1.2-.7-.59-.316-.728-.337-.3.011.214.174.559.456,1.071.822.258.183.567.481.9.716.168.117.252.23.44.361l.554.47a18.978,18.978,0,0,0-1.889-1.317l-2.122-1.4c-1.072-.62-2.226-1.2-3.265-1.724,0,0,.044.035.1.08Z" fill="#2b882e"/>
  <path d="M19.146,14.846c.483-.457,1.018-1.056,1.682-1.581l2.081-1.627,1.035-.811c.351-.243.705-.457,1.031-.673.657-.427,1.2-.858,1.628-1.186.8-.617.668-.434,1-.8a6.114,6.114,0,0,1,1.072-.551l1.739-.764a28.85,28.85,0,0,1,3.483-1.307c2.171-.812,3.936-1.145,4.086-1.274a6.408,6.408,0,0,1,1.243-.638c.316-.127.692-.285,1.147-.428.46-.118,1-.244,1.622-.381a27.611,27.611,0,0,1,4.939-.736,20.4,20.4,0,0,1,3.334-.265c.259-.177,1.036-.216,1.31-.387a52.522,52.522,0,0,0-6.686-.011c-1.119.108-2.233.272-3.348.409-.556.079-1.117.127-1.668.234l-1.643.371A48.587,48.587,0,0,0,15.2,14.574q2.106.09,3.942.273Z" fill="#2b882e"/>
  <path d="M59.656,56.045a12.064,12.064,0,0,0,6.151,3.837,15.938,15.938,0,0,0,4.229.554,19.818,19.818,0,0,0,9.712-2.658c7.833-4.456,17.907-24.291,18.332-25.133a.643.643,0,0,0-.53-.933c-.385-.027-4.323-.292-9.381-.292-7.313,0-16.966.555-21.6,3.188A19.138,19.138,0,0,0,58.205,43.8a12.421,12.421,0,0,0-.359,9.12,27.509,27.509,0,0,0-9.058,9.025c-.252-8.1-.443-15.768-.443-20.312,0-9.414,1.32-18.287,4.146-23.106a6.074,6.074,0,0,0,2.083.366q.342,0,.689-.034a9.325,9.325,0,0,0,6.128-3.484c2.857-3.484,4-14.549,4.047-15.018A.322.322,0,0,0,65.117,0a.334.334,0,0,0-.094.014c-.451.138-11.081,3.425-13.937,6.909a9.576,9.576,0,0,0-2.257,5.79,6.184,6.184,0,0,0,1.559,4.428c-3.646,5.141-5.954,13.308-6.075,26.1a26.425,26.425,0,0,0-10.4-9.485,9.562,9.562,0,0,0-.54-5.986A14.34,14.34,0,0,0,27.1,20.878c-3.473-1.976-10.712-2.392-16.2-2.392-3.792,0-6.747.2-7.035.219a.483.483,0,0,0-.4.7c.319.631,7.874,15.508,13.749,18.849A14.857,14.857,0,0,0,24.5,40.247a12.007,12.007,0,0,0,3.172-.414A8.943,8.943,0,0,0,32.6,36.571C40.2,41,44.077,50.856,44.077,60.047L43.6,93.905c-.674-.076-1.311-.226-1.931-.32l-2.321-.409a46.894,46.894,0,0,1-13.933-5.35c-1.056-.685-2.184-1.278-3.2-2.041l-3.03-2.32-2.8-2.625c-.922-.893-1.715-1.915-2.587-2.871A45.285,45.285,0,0,1,3.42,48.244q.067-1.771.133-3.54.246-1.755.49-3.5l.124-.873c.055-.287.136-.569.2-.853q.213-.852.424-1.7T5.218,36.1c.145-.559.382-1.086.568-1.627l.754-1.993c-.545-.8-1.1-1.63-1.662-2.525-.114-.181-.224-.359-.336-.538l-.266.53c-.257.5-.418,1.04-.631,1.558l-1.2,3.145c-.341,1.069-.6,2.164-.907,3.247L1.1,39.522.813,41.188C.636,42.3.425,43.41.281,44.528A52.092,52.092,0,0,0,.053,51.3a50.463,50.463,0,0,0,.639,6.774c.188,1.121.486,2.223.727,3.337.131.555.245,1.115.393,1.665l.537,1.628c.27.73.579,1.743,1.056,2.954.546,1.184,1.152,2.612,1.922,4.2L6.71,74.289,7.459,75.6c.284.431.6.858.9,1.3.626.878,1.251,1.812,1.95,2.741q1.137,1.326,2.35,2.743A49.688,49.688,0,0,0,25.539,92.421a48.217,48.217,0,0,0,51.791-3.73A51.6,51.6,0,0,0,87.807,78.1l1.7-2.632a20.447,20.447,0,0,0,1.447-2.445q.612-1.2,1.149-2.253a15.716,15.716,0,0,0,.921-1.984q.348-.914.695-1.821A47.294,47.294,0,0,0,96.8,48.751a44.755,44.755,0,0,0-.4-4.856c-1.2,1.987-2.549,4.09-3.986,6.143-.007.775-.025,1.55-.067,2.322-.1,1.068-.09,2.149-.277,3.206l-.539,3.173c-.172,1.059-.541,2.074-.8,3.114L90.31,63.4c-.172.551-.2.818-.547,2.087-1.474,4.269-3.5,7.227-6.124,11.117l-.107.152L81.859,78.8c-.593.657-1.256,1.262-1.886,1.9a41.71,41.71,0,0,1-4.114,3.59A21.526,21.526,0,0,1,73.815,85.8c-.7.479-1.377.988-2.089,1.445L69.517,88.49a17.294,17.294,0,0,1-2.25,1.164,37.78,37.78,0,0,1-4.688,1.9c-.8.262-1.593.56-2.4.8,0,0-2.186.623-2.837.793l-1.073.258-1.184.155-2.593.327c-.816.1-1.673.078-2.545.1-.061-1.506-.268-6.688-.516-13.361C49.43,72.417,52.735,61.825,59.656,56.045Z" fill="#2b882e"/>
</svg>
